<?xml version="1.0" encoding="utf-8"?>
<!-- Generator: Adobe Illustrator 26.3.1, SVG Export Plug-In . SVG Version: 6.00 Build 0)  -->
<svg version="1.1" id="Capa_1" xmlns="http://www.w3.org/2000/svg" xmlns:xlink="http://www.w3.org/1999/xlink" x="0px" y="0px"
	 viewBox="0 0 50 50" style="enable-background:new 0 0 50 50;" xml:space="preserve">
<style type="text/css">
	.st0{fill:none;stroke:#FFFFFF;stroke-width:2;stroke-linecap:round;stroke-linejoin:round;stroke-miterlimit:10;}
	.st1{fill:none;stroke:#FFFFFF;stroke-width:1.976;stroke-linecap:round;stroke-linejoin:round;stroke-miterlimit:10;}
</style>
<path class="st0" d="M9,45h32c2.2,0,4-1.8,4-4V9c0-2.2-1.8-4-4-4H9C6.8,5,5,6.8,5,9v32C5,43.2,6.8,45,9,45z"/>
<path class="st0" d="M11,20h6v13.1V39h-6V20z"/>
<path class="st1" d="M14,17L14,17c-1.8,0-3-1.1-3-2.5s1.2-2.5,3-2.5s2.9,1.1,3,2.5C17,15.9,15.9,17,14,17z"/>
<path class="st0" d="M39,39h-6c0,0,0-9.3,0-10c0-2-1-4-3.5-4c-2.5,0-3.5,2-3.5,4c0,0.9,0,10,0,10h-6V20h6v2.6c0,0,1.9-2.6,5.8-2.6
	c4,0,7.2,2.7,7.2,8.3V39z"/>
</svg>
