<?xml version="1.0" encoding="utf-8"?>
<!-- Generator: Adobe Illustrator 26.3.1, SVG Export Plug-In . SVG Version: 6.00 Build 0)  -->
<svg version="1.1" id="Capa_1" xmlns="http://www.w3.org/2000/svg" xmlns:xlink="http://www.w3.org/1999/xlink" x="0px" y="0px"
	 viewBox="0 0 288 545.9" style="enable-background:new 0 0 288 545.9;" xml:space="preserve">
<style type="text/css">
	.st0{fill:#E3F9FF;}
	.st1{fill:#FCC233;}
	.st2{fill:#C1E3F0;}
	.st3{fill:#B3D8E8;}
</style>
<g>
	<polygon class="st0" points="144,43.2 111.8,261 176.2,261 	"/>
	<polygon class="st0" points="145.3,310.3 145.3,308.1 144,309.2 142.7,308.1 142.7,310.3 0.4,435.6 0,436 0,521.8 142.7,545.5 
		142.7,545.9 144,545.7 145.3,545.9 145.3,545.5 286.9,522 288,521.8 288,436 	"/>
	<path class="st1" d="M144,0c-8.1,0-14.6,6.5-14.6,14.6c0,8.1,6.5,14.6,14.6,14.6c8.1,0,14.6-6.5,14.6-14.6C158.6,6.5,152.1,0,144,0
		z"/>
	<g>
		<polygon class="st2" points="144,226.6 144,545.9 190,537.9 190,258.5 		"/>
		<polygon class="st3" points="98,258.5 98,537.9 144,545.9 144,226.6 		"/>
	</g>
</g>
</svg>
